<svg width="240" height="160" viewBox="0 0 240 160" fill="none" xmlns="http://www.w3.org/2000/svg">
<g filter="url(#filter0_d)">
<path fill-rule="evenodd" clip-rule="evenodd" d="M68.2653 84.0952C70.5445 85.1008 72.9912 86.3409 75.6056 87.8157C78.22 89.3575 80.5997 91.2345 82.7448 93.4466C84.89 95.6588 86.6999 98.1726 88.1747 100.988C89.6495 103.804 90.3869 106.921 90.3869 110.339C90.3869 113.289 89.8506 116.473 88.778 119.892C87.7055 123.311 85.5603 126.294 82.3426 128.841C80.5327 130.115 78.1529 131.456 75.2034 132.863C72.1868 134.204 68.9356 135.008 65.4498 135.277C61.964 135.545 58.3106 135.411 54.4896 134.874C50.7356 134.338 47.2162 133.634 43.9315 132.763C37.094 131.288 30.6586 128.808 24.6254 125.322C23.0166 124.45 21.877 123.545 21.2066 122.607C20.4022 121.467 20 120.194 20 118.786C20 118.25 20.1341 117.546 20.4022 116.674C20.6704 115.87 21.4748 115.166 22.8155 114.563C23.1506 114.429 23.4188 114.362 23.6199 114.362C24.0891 114.362 24.4578 114.496 24.726 114.764C25.0611 115.032 25.4969 115.434 26.0332 115.97C26.5024 116.373 26.9381 116.808 27.3403 117.278L29.1503 119.088C29.3514 119.222 30.0553 119.49 31.2619 119.892C32.4685 120.294 34.9488 120.965 38.7028 121.903C43.1271 123.043 47.3838 124.082 51.473 125.02C55.6292 125.959 59.6177 126.059 63.4387 125.322C67.1927 124.45 70.1423 123.311 72.2874 121.903C74.3655 120.495 75.8738 119.054 76.8122 117.579C77.7507 116.172 78.3205 114.831 78.5216 113.557C78.7227 112.283 78.8233 111.412 78.8233 110.943C78.8233 109.267 78.287 107.558 77.2145 105.815C76.1419 104.072 74.9353 102.496 73.5946 101.089C72.1868 99.6809 70.8461 98.5078 69.5725 97.5693C68.2988 96.6308 67.4944 96.061 67.1592 95.8599C65.9526 95.1895 63.8745 94.4186 60.9249 93.5472C58.0424 92.6757 54.8247 91.4021 51.2719 89.7262C47.786 88.1173 44.1662 85.9387 40.4122 83.1903C36.6582 80.5089 33.3065 76.9895 30.3569 72.6322C29.2844 71.0234 28.4799 69.1129 27.9437 66.9007C27.4074 64.7556 27.0722 62.577 26.9381 60.3648C26.8041 58.1526 26.8376 56.041 27.0387 54.03C27.2398 52.086 27.4744 50.4436 27.7426 49.1029C28.681 45.0808 30.1893 40.9581 32.2674 36.7349C34.2785 32.5117 36.6247 28.8918 39.3061 25.8753C41.9205 22.9257 44.803 20.5795 47.9536 18.8366C51.1043 17.0937 53.9868 16.2222 56.6012 16.2222C60.154 16.2222 63.5728 16.859 66.8575 18.1327C70.1423 19.4734 73.1923 21.652 76.0078 24.6686C78.6222 27.35 80.5327 30.2325 81.7393 33.3161C82.8789 36.3327 83.5493 39.4163 83.7504 42.567C83.8174 44.444 83.8844 45.5836 83.9515 45.9858C84.0185 46.388 84.052 46.6226 84.052 46.6896C84.052 46.7567 84.0185 46.9243 83.9515 47.1924C83.8844 47.4606 83.8509 48.4326 83.8509 50.1084C83.8509 53.7954 83.5493 56.4768 82.946 58.1527C82.3426 59.7615 81.6388 60.8005 80.8344 61.2698C79.9629 61.739 79.259 61.9737 78.7227 61.9737C77.4491 61.9737 76.5106 61.7055 75.9073 61.1692C75.2369 60.6329 74.7006 60.1302 74.2984 59.6609C73.561 58.3873 73.1923 56.6108 73.1923 54.3316V50.5107C73.1923 49.9073 73.1588 49.3375 73.0918 48.8013C73.0918 48.265 73.0248 47.5946 72.8907 46.7902C72.8237 45.9187 72.6896 44.3099 72.4885 41.9637C72.2874 40.0197 71.7846 38.3103 70.9802 36.8355C70.1758 35.3607 69.3713 34.02 68.5669 32.8134C67.8966 31.9419 66.9581 31.1375 65.7515 30.4001C64.5448 29.6627 63.1706 29.0929 61.6288 28.6907C60.154 28.3556 58.6457 28.2215 57.1039 28.2885C55.5621 28.4226 54.1544 28.8918 52.8807 29.6963C51.3389 30.7688 49.9312 31.8414 48.6575 32.9139C47.3838 34.0535 45.842 36.0311 44.0321 38.8465C43.0266 40.4554 42.1886 42.2318 41.5183 44.1758C40.8479 46.1869 40.2781 48.7007 39.8089 51.7173C39.6078 52.5217 39.4737 53.5943 39.4067 54.935C39.3396 56.3427 39.3396 57.8175 39.4067 59.3593C39.4737 60.9011 39.7083 62.5099 40.1105 64.1858C40.5127 65.7947 41.1831 67.2694 42.1216 68.6101C44.2667 71.6937 46.2107 73.9729 47.9536 75.4477C49.7636 76.8554 51.607 77.928 53.484 78.6654C55.361 79.4698 57.4726 80.1737 59.8188 80.777C62.1651 81.4473 64.9805 82.5534 68.2653 84.0952ZM131.31 81.682C132.517 81.682 133.087 82.0172 133.02 82.6875C132.953 83.4249 132.919 84.3634 132.919 85.503C132.919 85.637 132.886 85.9387 132.819 86.408C132.752 86.8102 132.618 87.38 132.417 88.1173C132.282 88.8547 132.048 89.8938 131.713 91.2345C131.445 92.5752 131.042 94.2175 130.506 96.1616C128.916 102.524 127.221 108.213 125.424 113.229C125.438 112.763 125.457 112.269 125.478 111.747C125.546 110.071 125.613 108.06 125.68 105.714C125.814 103.77 125.881 102.094 125.881 100.686V97.2676L125.31 95.7929C125.748 94.4943 126.173 93.1759 126.585 91.8378C126.853 90.7652 127.087 89.7597 127.288 88.8212C127.557 87.8157 127.825 86.7766 128.093 85.7041C128.562 83.0227 129.635 81.682 131.31 81.682ZM186.579 115.547C186.326 116.229 186.07 116.907 185.81 117.579C182.592 126.227 178.738 130.551 174.247 130.551C169.018 130.551 165.834 125.657 164.694 115.87C164.627 115.87 164.593 115.836 164.593 115.769V112.351C163.923 114.429 163.387 116.138 162.985 117.479C162.515 118.819 162.147 119.825 161.879 120.495C159.331 127.199 156.315 130.551 152.829 130.551C152.024 130.551 151.186 130.383 150.315 130.048C149.511 129.78 148.74 129.243 148.002 128.439C147.332 127.567 146.762 126.394 146.293 124.92C145.824 123.512 145.589 121.668 145.589 119.389C145.589 118.183 145.857 114.194 146.393 107.423C146.595 105.546 146.695 103.77 146.695 102.094C146.762 100.418 146.863 98.8094 146.997 97.2676C146.662 98.1391 146.36 99.3792 146.092 100.988C144.014 111.311 142.572 117.881 141.768 120.696C139.221 128.674 135.969 132.662 132.014 132.662C130.54 132.662 129.367 132.092 128.495 130.953C127.691 129.88 127.054 128.539 126.585 126.931C126.115 125.255 125.814 123.445 125.68 121.501C125.478 119.557 125.378 117.646 125.378 115.769C125.378 115.045 125.393 114.198 125.424 113.229C125.176 113.921 124.926 114.6 124.674 115.267C123.668 118.015 122.663 120.361 121.657 122.305C120.719 124.182 119.78 125.791 118.842 127.132C116.295 130.685 113.077 132.461 109.189 132.461C104.899 132.461 101.212 130.215 98.1281 125.724C95.3126 121.501 93.9049 116.373 93.9049 110.339C93.9049 105.513 94.2401 100.586 94.9104 95.5582C95.6478 90.5976 96.5863 86.1398 97.7259 82.1847C98.0611 80.777 98.4968 79.3358 99.0331 77.861C99.5694 76.3862 100.206 75.012 100.944 73.7383C101.681 72.4647 102.519 71.4256 103.457 70.6212C104.396 69.8168 105.535 69.4146 106.876 69.4146C109.491 69.4146 111.904 70.3866 114.116 72.3306C115.189 73.4031 116.06 74.6768 116.73 76.1516C117.334 77.6934 117.635 79.0006 117.635 80.0731C117.635 81.9501 117.468 84.0282 117.133 86.3074C116.73 88.5866 116.261 90.8323 115.725 93.0444C115.121 95.1896 114.485 97.2006 113.814 99.0776C113.077 100.888 112.34 102.362 111.602 103.502C111.133 104.306 110.496 105.144 109.692 106.016C108.82 106.887 107.949 107.558 107.077 108.027C106.139 108.563 105.301 108.865 104.563 108.932C103.759 108.932 103.055 108.563 102.452 107.826C102.251 108.563 102.217 109.569 102.351 110.842C102.418 112.049 102.552 113.222 102.754 114.362C102.955 115.568 103.189 116.674 103.457 117.68C103.726 118.752 103.96 119.523 104.161 119.993C104.899 121.534 105.871 122.707 107.077 123.512C108.351 124.316 109.222 124.719 109.692 124.719C110.63 124.719 111.535 124.015 112.407 122.607C113.278 121.199 114.418 119.423 115.825 117.278C117.434 114.73 119.211 111.177 121.155 106.619C122.651 103.177 124.036 99.5686 125.31 95.7929L124.674 94.1505C124.607 94.0835 124.574 93.9159 124.574 93.6477C124.171 88.0838 124.842 84.3634 126.585 82.4864C127.523 81.5479 128.629 81.0787 129.903 81.0787C130.506 81.0787 131.143 81.1792 131.813 81.3803C132.551 81.5814 133.188 81.9501 133.724 82.4864C134.26 83.0897 134.763 83.8941 135.232 84.8997C135.634 85.9052 135.835 87.2794 135.835 89.0223C135.835 92.9103 135.467 96.5973 134.729 100.083C134.059 103.033 133.724 106.653 133.724 110.943V113.959C133.724 114.965 133.757 115.937 133.824 116.875C134.025 116.205 134.227 115.568 134.428 114.965C134.629 114.362 134.83 113.725 135.031 113.054C136.104 106.887 137.109 101.759 138.048 97.6698C138.986 93.5807 139.925 90.363 140.863 88.0168C141.064 87.5475 141.366 86.8772 141.768 86.0057C142.103 85.0672 142.606 84.1623 143.276 83.2908C143.88 82.4194 144.617 81.6485 145.488 80.9781C146.36 80.3077 147.399 79.9726 148.606 79.9726C149.41 79.9726 150.281 80.2072 151.22 80.6764C152.225 81.1457 153.097 82.1847 153.834 83.7936C154.773 85.6706 155.242 88.486 155.242 92.24V92.3406C154.773 96.6978 154.404 100.586 154.136 104.005C153.868 107.423 153.734 110.407 153.734 112.954C153.734 113.959 153.767 114.764 153.834 115.367V116.976C154.438 116.239 155.175 114.697 156.046 112.351C156.918 110.004 158.024 106.351 159.365 101.39C160.37 97.5023 161.175 94.3851 161.778 92.0389C162.314 89.6256 162.716 87.7151 162.985 86.3074C163.253 84.8997 163.387 83.9276 163.387 83.3914V82.3858V81.682C163.588 81.0116 164.024 80.2742 164.694 79.4698C165.364 78.6654 166.672 78.2632 168.616 78.2632C170.291 78.2632 172.604 79.2017 175.554 81.0787C176.358 81.682 176.626 82.3858 176.358 83.1903C173.945 94.9214 172.738 104.608 172.738 112.25C172.738 114.395 172.805 116.104 172.939 117.378C173.073 118.652 173.241 119.59 173.442 120.194C173.71 120.998 173.978 121.534 174.247 121.802C174.381 121.802 174.615 121.702 174.95 121.501C175.219 121.3 175.654 120.797 176.258 119.993C176.928 119.188 177.665 117.948 178.47 116.272C179.341 114.529 180.28 112.082 181.285 108.932V108.831C181.419 108.764 181.553 108.429 181.687 107.826C181.889 107.155 182.19 106.083 182.592 104.608C183.062 103.133 183.631 101.055 184.302 98.3737C184.807 96.5827 185.406 94.4456 186.1 91.9625C185.64 97.3376 185.41 101.05 185.41 103.1C185.41 107.722 185.799 111.871 186.579 115.547ZM186.579 115.547C187.435 113.234 188.251 110.861 189.028 108.429C190.1 105.211 191.139 101.86 192.145 98.3737C192.815 96.0275 193.318 94.0835 193.653 92.5417C194.055 90.9328 194.357 89.5921 194.558 88.5195C194.759 87.514 194.86 86.7431 194.86 86.2068C194.927 85.6035 194.96 85.1678 194.96 84.8997C194.96 83.4919 194.625 82.5199 193.955 81.9836C193.284 81.3803 192.581 81.0787 191.843 81.0787C190.167 81.0787 188.994 81.9166 188.324 83.5925V83.7936L188.022 85.0002C187.888 85.6035 187.754 86.1733 187.62 86.7096C187.419 87.3129 187.251 87.8492 187.117 88.3184C186.758 89.6063 186.419 90.821 186.1 91.9625C186.167 91.1848 186.238 90.3724 186.315 89.5251C186.918 82.8886 187.89 73.6043 189.231 61.672C188.359 61.8731 187.555 61.8396 186.817 61.5715C186.08 61.3704 185.544 61.1692 185.209 60.9681C185.075 60.9011 184.84 60.7 184.505 60.3648C184.237 60.0967 183.734 59.8285 182.996 59.5604C181.656 59.0912 180.851 58.5214 180.583 57.851C180.248 57.1136 180.08 56.5103 180.08 56.0411C180.08 55.7729 180.248 55.2702 180.583 54.5328C180.851 53.8624 181.924 53.3261 183.801 52.9239C184.404 52.8569 184.873 52.7899 185.209 52.7228C185.611 52.6558 186.013 52.6223 186.415 52.6223C186.75 52.5552 187.186 52.4882 187.722 52.4212C188.259 52.4212 188.929 52.3541 189.733 52.2201C189.868 51.2145 189.968 49.9409 190.035 48.3991C190.102 46.9243 190.203 45.2149 190.337 43.2709L189.633 40.8576C189.633 40.2543 189.666 39.8186 189.733 39.5504C190.471 38.0757 191.644 37.3383 193.253 37.3383C194.929 37.3383 197.342 38.3103 200.493 40.2543C201.029 40.7235 201.297 41.2933 201.297 41.9637V45.1814V45.5836L200.694 48.8013C200.426 49.8738 200.157 51.0805 199.889 52.4212H201.096H201.398C201.532 52.4882 201.766 52.5552 202.101 52.6223H204.716C205.922 52.6223 206.861 52.6558 207.531 52.7228C208.269 52.7899 209.04 52.8569 209.844 52.9239C210.648 52.9239 211.654 52.9574 212.861 53.0245C214.067 53.0915 215.81 53.1586 218.089 53.2256C219.363 53.4267 220 54.1306 220 55.3372V56.3427C220 56.812 219.866 57.2142 219.598 57.5494C219.329 57.9516 218.726 58.3538 217.788 58.756C216.849 59.0912 214.738 59.5604 211.453 60.1637C209.308 60.633 207.531 60.9011 206.124 60.9681C204.716 61.0352 203.476 61.0687 202.403 61.0687L198.079 61.3703C197.878 62.7111 197.677 64.7891 197.476 67.6046C197.208 70.4871 196.839 74.04 196.37 78.2632C195.968 81.8161 195.7 84.7321 195.566 87.0113C195.364 89.2905 195.197 91.0669 195.063 92.3406C194.929 93.6813 194.828 94.6198 194.761 95.156C194.694 95.7594 194.661 96.128 194.661 96.2621C194.661 100.821 194.694 104.474 194.761 107.222C194.828 109.971 194.895 111.881 194.962 112.954C195.23 115.903 195.633 117.847 196.169 118.786C196.705 119.724 197.04 120.194 197.174 120.194C197.577 120.06 197.979 119.758 198.381 119.289C198.716 118.819 199.152 118.149 199.688 117.278C200.224 116.406 200.861 115.2 201.599 113.658C202.604 111.11 203.71 107.893 204.917 104.005C206.057 100.117 207.23 95.5918 208.436 90.4301C208.771 89.1564 209.073 88.1174 209.341 87.3129C209.609 86.4415 209.844 85.6706 210.045 85.0002C210.246 84.531 210.548 83.9277 210.95 83.1903C211.352 82.4529 212.023 82.0842 212.961 82.0842C213.833 82.0842 214.637 82.3859 215.374 82.9892C216.112 83.5925 216.48 84.6986 216.48 86.3074C216.48 88.1174 216.078 90.7988 215.274 94.3516C214.402 97.9715 213.028 102.597 211.151 108.228C208.738 115.468 206.358 120.797 204.012 124.216C201.733 127.635 199.32 129.344 196.772 129.344C193.219 129.344 190.37 126.629 188.225 121.199C187.558 119.459 187.009 117.575 186.579 115.547ZM107.178 84.2964C107.782 82.6205 108.452 80.7435 109.189 78.6654C109.525 78.0621 109.759 78.0956 109.893 78.766C110.027 79.5033 110.094 80.1067 110.094 80.5759C110.094 82.587 109.893 84.5645 109.491 86.5085C109.022 88.4525 108.62 90.363 108.284 92.24C107.949 93.5137 107.346 94.9549 106.475 96.5638C105.603 98.1726 104.564 99.0106 103.357 99.0776C103.424 97.1336 103.659 95.3571 104.061 93.7483C104.396 92.1395 104.866 90.5641 105.469 89.0223C106.005 87.4805 106.575 85.9052 107.178 84.2964Z" fill="#FF9F1C"/>
</g>
<defs>
<filter id="filter0_d" x="0" y="0.222198" width="240" height="159.188" filterUnits="userSpaceOnUse" color-interpolation-filters="sRGB">
<feFlood flood-opacity="0" result="BackgroundImageFix"/>
<feColorMatrix in="SourceAlpha" type="matrix" values="0 0 0 0 0 0 0 0 0 0 0 0 0 0 0 0 0 0 127 0"/>
<feOffset dy="4"/>
<feGaussianBlur stdDeviation="10"/>
<feColorMatrix type="matrix" values="0 0 0 0 1 0 0 0 0 0.623529 0 0 0 0 0.109804 0 0 0 0.7 0"/>
<feBlend mode="normal" in2="BackgroundImageFix" result="effect1_dropShadow"/>
<feBlend mode="normal" in="SourceGraphic" in2="effect1_dropShadow" result="shape"/>
</filter>
</defs>
</svg>
